<?xml version="1.0" encoding="utf-8"?>
<svg width="800" height="800" viewBox="0 0 500 500" xmlns="http://www.w3.org/2000/svg">
  <path d="M 422.792 373.023 L 425.439 373.687 L 378.303 373.687 L 251.967 405.378 L 125.615 373.686 L 77.179 373.686 L 79.841 373.018 L 80.42 373.018 L 81.085 372.851 L 77.823 372.851 L 100.055 367.275 L 77.829 361.7 L 122.285 361.7 L 127.067 360.501 L 253.276 35.867 L 379.82 361.39 L 381.053 361.699 L 426.094 361.699 L 403.573 367.348 L 422.551 372.109 L 418.57 372.109 L 422.213 373.023 Z M 360.203 356.324 L 252.675 170.071 L 145.377 355.908 L 251.967 329.173 Z M 252.675 143.071 L 337.63 290.224 L 253.276 73.23 L 171.391 283.854 Z M 251.313 343.555 L 189.325 359.104 L 313.31 359.107 Z M 319.973 374.771 L 183.956 374.772 L 251.967 391.831 Z" style="fill: none;"/>
  <path d="M 252.675 170.071 L 143.292 359.518 L 362.05 359.523 Z M 252.675 143.071 L 385.432 373.023 L 119.91 373.018 Z" style="fill: rgb(237, 104, 104);"/>
  <path d="M 142.426 360.018 L 252.675 169.071 L 362.916 360.023 Z M 252.675 171.071 L 144.158 359.018 L 361.184 359.023 Z M 386.298 373.523 L 119.044 373.518 L 252.675 142.071 Z M 120.776 372.518 L 384.566 372.523 L 252.675 144.071 Z" style="fill: none;"/>
  <path d="M 252.675 170.071 L 143.292 359.518 L 362.05 359.523 Z M 252.675 143.071 L 385.432 373.023 L 119.91 373.018 Z" style="fill: rgb(237, 104, 104);"/>
  <path d="M 142.426 360.018 L 252.675 169.071 L 362.916 360.023 Z M 252.675 171.071 L 144.158 359.018 L 361.184 359.023 Z M 386.298 373.523 L 119.044 373.518 L 252.675 142.071 Z M 120.776 372.518 L 384.566 372.523 L 252.675 144.071 Z" style="fill: none;"/>
  <path d="M 252.675 170.071 L 143.292 359.518 L 362.05 359.523 Z M 252.675 143.071 L 385.432 373.023 L 119.91 373.018 Z" style="fill: rgb(237, 104, 104);"/>
  <path d="M 142.426 360.018 L 252.675 169.071 L 362.916 360.023 Z M 252.675 171.071 L 144.158 359.018 L 361.184 359.023 Z M 386.298 373.523 L 119.044 373.518 L 252.675 142.071 Z M 120.776 372.518 L 384.566 372.523 L 252.675 144.071 Z" style="fill: none;"/>
  <path d="M 252.675 170.071 L 143.292 359.518 L 362.05 359.523 Z M 252.675 143.071 L 385.432 373.023 L 119.91 373.018 Z" style="fill: rgb(237, 104, 104);"/>
  <path d="M 142.426 360.018 L 252.675 169.071 L 362.916 360.023 Z M 252.675 171.071 L 144.158 359.018 L 361.184 359.023 Z M 386.298 373.523 L 119.044 373.518 L 252.675 142.071 Z M 120.776 372.518 L 384.566 372.523 L 252.675 144.071 Z" style="fill: none;"/>
  <path d="M 252.675 170.071 L 143.292 359.518 L 362.05 359.523 Z M 252.675 143.071 L 385.432 373.023 L 119.91 373.018 Z" style="fill: rgb(237, 104, 104);"/>
  <path d="M 142.426 360.018 L 252.675 169.071 L 362.916 360.023 Z M 252.675 171.071 L 144.158 359.018 L 361.184 359.023 Z M 386.298 373.523 L 119.044 373.518 L 252.675 142.071 Z M 120.776 372.518 L 384.566 372.523 L 252.675 144.071 Z" style="fill: none;"/>
  <path d="M 252.675 170.071 L 143.292 359.518 L 362.05 359.523 Z M 252.675 143.071 L 385.432 373.023 L 119.91 373.018 Z" style="fill: rgb(237, 104, 104);"/>
  <path d="M 142.426 360.018 L 252.675 169.071 L 362.916 360.023 Z M 252.675 171.071 L 144.158 359.018 L 361.184 359.023 Z M 386.298 373.523 L 119.044 373.518 L 252.675 142.071 Z M 120.776 372.518 L 384.566 372.523 L 252.675 144.071 Z" style="fill: none;"/>
  <path d="M 252.675 170.071 L 143.292 359.518 L 362.05 359.523 Z M 252.675 143.071 L 385.432 373.023 L 119.91 373.018 Z" style="fill: rgb(237, 104, 104);"/>
  <path d="M 142.426 360.018 L 252.675 169.071 L 362.916 360.023 Z M 252.675 171.071 L 144.158 359.018 L 361.184 359.023 Z M 386.298 373.523 L 119.044 373.518 L 252.675 142.071 Z M 120.776 372.518 L 384.566 372.523 L 252.675 144.071 Z" style="fill: none;"/>
  <path d="M 142.426 360.018 L 252.675 169.071 L 362.916 360.023 Z M 252.675 171.071 L 144.158 359.018 L 361.184 359.023 Z M 386.298 373.523 L 119.044 373.518 L 252.675 142.071 Z M 120.776 372.518 L 384.566 372.523 L 252.675 144.071 Z" style="fill: none;"/>
  <path d="M 392.445 332.585 L 149.439 332.585 L 270.942 122.135 Z M 151.171 331.585 L 390.713 331.585 L 270.942 124.135 Z" style="fill: none;" transform="matrix(-0.500016, 0.866016, -0.866016, -0.500016, 615.420471, 192.952026)"/>
  <path d="M 148.573 333.085 L 270.942 121.135 L 393.311 333.085 Z M 152.037 331.085 L 389.847 331.085 L 270.942 125.135 Z" style="fill: none;" transform="matrix(-0.500016, 0.866016, -0.866016, -0.500016, 615.420471, 192.952026)"/>
  <path d="M 148.573 333.085 L 270.942 121.135 L 393.311 333.085 Z M 152.037 331.085 L 389.847 331.085 L 270.942 125.135 Z" style="fill: none;" transform="matrix(-0.500016, 0.866016, -0.866016, -0.500016, 615.420471, 192.952026)"/>
  <path d="M 148.573 333.085 L 270.942 121.135 L 393.311 333.085 Z M 152.037 331.085 L 389.847 331.085 L 270.942 125.135 Z" style="fill: none;" transform="matrix(-0.500016, 0.866016, -0.866016, -0.500016, 615.420471, 192.952026)"/>
  <path d="M 148.573 333.085 L 270.942 121.135 L 393.311 333.085 Z M 152.037 331.085 L 389.847 331.085 L 270.942 125.135 Z" style="fill: none;" transform="matrix(-0.500016, 0.866016, -0.866016, -0.500016, 615.420471, 192.952026)"/>
  <path d="M 148.573 333.085 L 270.942 121.135 L 393.311 333.085 Z M 152.037 331.085 L 389.847 331.085 L 270.942 125.135 Z" style="fill: none;" transform="matrix(-0.500016, 0.866016, -0.866016, -0.500016, 615.420471, 192.952026)"/>
  <path d="M 253.276 73.23 L 142.136 359.102 L 364.408 359.109 Z M 253.276 35.867 L 384.276 372.852 L 122.268 372.845 Z" style="fill: rgb(237, 104, 104);"/>
  <path d="M 141.405 359.602 L 253.276 71.85 L 365.139 359.609 Z M 253.276 74.61 L 142.867 358.602 L 363.677 358.609 Z M 385.007 373.352 L 121.537 373.345 L 253.276 34.487 Z M 122.999 372.345 L 383.545 372.352 L 253.276 37.247 Z" style="fill: none;"/>
  <path d="M 253.276 73.23 L 142.136 359.102 L 364.408 359.109 Z M 253.276 35.867 L 384.276 372.852 L 122.268 372.845 Z" style="fill: rgb(237, 104, 104);"/>
  <path d="M 141.405 359.602 L 253.276 71.85 L 365.139 359.609 Z M 253.276 74.61 L 142.867 358.602 L 363.677 358.609 Z M 385.007 373.352 L 121.537 373.345 L 253.276 34.487 Z M 122.999 372.345 L 383.545 372.352 L 253.276 37.247 Z" style="fill: none;"/>
  <path d="M 253.276 73.23 L 142.136 359.102 L 364.408 359.109 Z M 253.276 35.867 L 384.276 372.852 L 122.268 372.845 Z" style="fill: rgb(237, 104, 104);"/>
  <path d="M 141.405 359.602 L 253.276 71.85 L 365.139 359.609 Z M 253.276 74.61 L 142.867 358.602 L 363.677 358.609 Z M 385.007 373.352 L 121.537 373.345 L 253.276 34.487 Z M 122.999 372.345 L 383.545 372.352 L 253.276 37.247 Z" style="fill: none;"/>
  <path d="M 253.276 73.23 L 142.136 359.102 L 364.408 359.109 Z M 253.276 35.867 L 384.276 372.852 L 122.268 372.845 Z" style="fill: rgb(237, 104, 104);"/>
  <path d="M 141.405 359.602 L 253.276 71.85 L 365.139 359.609 Z M 253.276 74.61 L 142.867 358.602 L 363.677 358.609 Z M 385.007 373.352 L 121.537 373.345 L 253.276 34.487 Z M 122.999 372.345 L 383.545 372.352 L 253.276 37.247 Z" style="fill: none;"/>
  <path d="M 253.276 73.23 L 142.136 359.102 L 364.408 359.109 Z M 253.276 35.867 L 384.276 372.852 L 122.268 372.845 Z" style="fill: rgb(237, 104, 104);"/>
  <path d="M 141.405 359.602 L 253.276 71.85 L 365.139 359.609 Z M 253.276 74.61 L 142.867 358.602 L 363.677 358.609 Z M 385.007 373.352 L 121.537 373.345 L 253.276 34.487 Z M 122.999 372.345 L 383.545 372.352 L 253.276 37.247 Z" style="fill: none;"/>
  <path d="M 253.276 73.23 L 142.136 359.102 L 364.408 359.109 Z M 253.276 35.867 L 384.276 372.852 L 122.268 372.845 Z" style="fill: rgb(237, 104, 104);"/>
  <path d="M 141.405 359.602 L 253.276 71.85 L 365.139 359.609 Z M 253.276 74.61 L 142.867 358.602 L 363.677 358.609 Z M 385.007 373.352 L 121.537 373.345 L 253.276 34.487 Z M 122.999 372.345 L 383.545 372.352 L 253.276 37.247 Z" style="fill: none;"/>
  <path d="M 253.276 73.23 L 142.136 359.102 L 364.408 359.109 Z M 253.276 35.867 L 384.276 372.852 L 122.268 372.845 Z" style="fill: rgb(237, 104, 104);"/>
  <path d="M 141.405 359.602 L 253.276 71.85 L 365.139 359.609 Z M 253.276 74.61 L 142.867 358.602 L 363.677 358.609 Z M 385.007 373.352 L 121.537 373.345 L 253.276 34.487 Z M 122.999 372.345 L 383.545 372.352 L 253.276 37.247 Z" style="fill: none;"/>
  <path d="M 253.276 73.23 L 141.207 360.031 C 141.206 360.043 363.652 370.942 364.873 359.341 L 253.276 73.23 Z M 253.276 35.867 L 384.276 372.852 L 122.268 372.845 L 253.276 35.867 Z" style="fill: rgb(64, 54, 54);"/>
  <path d="M 141.405 359.602 L 253.276 71.85 L 365.139 359.609 Z M 253.276 74.61 L 142.867 358.602 L 363.677 358.609 Z M 385.007 373.352 L 121.537 373.345 L 253.276 34.487 Z M 122.999 372.345 L 383.545 372.352 L 253.276 37.247 Z" style="fill: none;"/>
  <path d="M 319.973 359.78 L 183.956 359.779 L 319.973 359.78 Z M 251.967 329.173 L 77.829 372.851 L 251.967 329.173 Z" style="fill: rgb(237, 104, 104);"/>
  <path d="M 179.908 360.279 L 251.967 342.205 L 324.021 360.28 Z M 251.967 343.235 L 188.004 359.279 L 315.925 359.28 Z M 430.142 373.352 L 73.78 373.351 L 251.967 328.658 Z M 81.878 372.351 L 422.046 372.352 L 251.967 329.688 Z" style="fill: none;"/>
  <path d="M 319.973 359.78 L 183.956 359.779 L 319.973 359.78 Z M 251.967 329.173 L 77.829 372.851 L 251.967 329.173 Z" style="fill: rgb(237, 104, 104);"/>
  <path d="M 252.675 170.071 L 143.292 359.518 C 143.292 354.443 362.05 355.399 362.05 359.523 L 252.675 170.071 Z M 252.675 143.071 L 385.432 373.023 L 119.91 373.018 L 252.675 143.071 Z" style="fill: rgb(205, 34, 54);"/>
  <path d="M 179.908 360.279 L 251.967 342.205 L 324.021 360.28 Z M 251.967 343.235 L 188.004 359.279 L 315.925 359.28 Z M 430.142 373.352 L 73.78 373.351 L 251.967 328.658 Z M 81.878 372.351 L 422.046 372.352 L 251.967 329.688 Z" style="fill: none;"/>
  <path d="M 319.973 359.78 L 183.956 359.779 L 319.973 359.78 Z M 251.967 329.173 L 77.829 372.851 L 251.967 329.173 Z" style="fill: rgb(237, 104, 104);"/>
  <path d="M 179.908 360.279 L 251.967 342.205 L 324.021 360.28 Z M 251.967 343.235 L 188.004 359.279 L 315.925 359.28 Z M 430.142 373.352 L 73.78 373.351 L 251.967 328.658 Z M 81.878 372.351 L 422.046 372.352 L 251.967 329.688 Z" style="fill: none;"/>
  <path d="M 319.973 359.78 L 183.956 359.779 L 319.973 359.78 Z M 251.967 329.173 L 77.829 372.851 L 251.967 329.173 Z" style="fill: rgb(237, 104, 104);"/>
  <path d="M 179.908 360.279 L 251.967 342.205 L 324.021 360.28 Z M 251.967 343.235 L 188.004 359.279 L 315.925 359.28 Z M 430.142 373.352 L 73.78 373.351 L 251.967 328.658 Z M 81.878 372.351 L 422.046 372.352 L 251.967 329.688 Z" style="fill: none;"/>
  <path d="M 319.973 359.78 L 183.956 359.779 L 319.973 359.78 Z M 251.967 329.173 L 77.829 372.851 L 251.967 329.173 Z" style="fill: rgb(237, 104, 104);"/>
  <path d="M 179.908 360.279 L 251.967 342.205 L 324.021 360.28 Z M 251.967 343.235 L 188.004 359.279 L 315.925 359.28 Z M 430.142 373.352 L 73.78 373.351 L 251.967 328.658 Z M 81.878 372.351 L 422.046 372.352 L 251.967 329.688 Z" style="fill: none;"/>
  <path d="M 319.973 359.78 L 183.956 359.779 L 319.973 359.78 Z M 251.967 329.173 L 77.829 372.851 L 251.967 329.173 Z" style="fill: rgb(237, 104, 104);"/>
  <path d="M 179.908 360.279 L 251.967 342.205 L 324.021 360.28 Z M 251.967 343.235 L 188.004 359.279 L 315.925 359.28 Z M 430.142 373.352 L 73.78 373.351 L 251.967 328.658 Z M 81.878 372.351 L 422.046 372.352 L 251.967 329.688 Z" style="fill: none;"/>
  <path d="M 319.973 359.78 L 183.956 359.779 L 319.973 359.78 Z M 251.967 329.173 L 77.829 372.851 L 251.967 329.173 Z" style="fill: rgb(237, 104, 104);"/>
  <path d="M 179.908 360.279 L 251.967 342.205 L 324.021 360.28 Z M 251.967 343.235 L 188.004 359.279 L 315.925 359.28 Z M 430.142 373.352 L 73.78 373.351 L 251.967 328.658 Z M 81.878 372.351 L 422.046 372.352 L 251.967 329.688 Z" style="fill: none;"/>
  <path d="M 179.908 360.279 L 251.967 342.205 L 324.021 360.28 Z M 251.967 343.235 L 188.004 359.279 L 315.925 359.28 Z M 430.142 373.352 L 73.78 373.351 L 251.967 328.658 Z M 81.878 372.351 L 422.046 372.352 L 251.967 329.688 Z" style="fill: none;"/>
  <path d="M 179.254 361.114 L 251.313 343.04 L 323.367 361.115 Z M 251.313 344.07 L 187.35 360.114 L 315.271 360.115 Z M 429.488 374.187 L 73.126 374.186 L 251.313 329.493 Z M 81.224 373.186 L 421.392 373.187 L 251.313 330.523 Z" style="fill: none;"/>
  <path d="M 179.254 361.114 L 251.313 343.04 L 323.367 361.115 Z M 251.313 344.07 L 187.35 360.114 L 315.271 360.115 Z M 429.488 374.187 L 73.126 374.186 L 251.313 329.493 Z M 81.224 373.186 L 421.392 373.187 L 251.313 330.523 Z" style="fill: none;"/>
  <path d="M 179.254 361.114 L 251.313 343.04 L 323.367 361.115 Z M 251.313 344.07 L 187.35 360.114 L 315.271 360.115 Z M 429.488 374.187 L 73.126 374.186 L 251.313 329.493 Z M 81.224 373.186 L 421.392 373.187 L 251.313 330.523 Z" style="fill: none;"/>
  <path d="M 179.254 361.114 L 251.313 343.04 L 323.367 361.115 Z M 251.313 344.07 L 187.35 360.114 L 315.271 360.115 Z M 429.488 374.187 L 73.126 374.186 L 251.313 329.493 Z M 81.224 373.186 L 421.392 373.187 L 251.313 330.523 Z" style="fill: none;"/>
  <path d="M 251.543 334.243 C 250.272 332.177 179.876 355.789 183.302 361.357 L 319.319 361.358 C 325.667 355.01 254.042 331.744 251.543 334.243 Z" style="fill: rgb(205, 34, 54);"/>
  <path d="M 179.254 361.114 L 251.313 343.04 L 323.367 361.115 Z M 251.313 344.07 L 187.35 360.114 L 315.271 360.115 Z M 429.488 374.187 L 73.126 374.186 L 251.313 329.493 Z M 81.224 373.186 L 421.392 373.187 L 251.313 330.523 Z" style="fill: none;"/>
  <path d="M 251.659 331.178 L 184.302 308.733 L 249.92 401.902 L 320.319 308.738 L 251.659 331.178 Z" style="fill: rgb(170, 35, 51);"/>
  <path d="M 179.254 361.114 L 251.313 343.04 L 323.367 361.115 Z M 251.313 344.07 L 187.35 360.114 L 315.271 360.115 Z M 429.488 374.187 L 73.126 374.186 L 251.313 329.493 Z M 81.224 373.186 L 421.392 373.187 L 251.313 330.523 Z" style="fill: none;"/>
  <path d="M 179.254 361.114 L 251.313 343.04 L 323.367 361.115 Z M 251.313 344.07 L 187.35 360.114 L 315.271 360.115 Z M 429.488 374.187 L 73.126 374.186 L 251.313 329.493 Z M 81.224 373.186 L 421.392 373.187 L 251.313 330.523 Z" style="fill: none;"/>
  <path d="M 249.35 409.655 L 183.302 360.614 C 183.925 345.194 319.926 343.568 319.319 360.615 L 249.35 409.655 Z" style="fill: rgb(170, 35, 51);"/>
  <path d="M 179.254 361.114 L 251.313 343.04 L 323.367 361.115 Z M 251.313 344.07 L 187.35 360.114 L 315.271 360.115 Z M 429.488 374.187 L 73.126 374.186 L 251.313 329.493 Z M 81.224 373.186 L 421.392 373.187 L 251.313 330.523 Z" style="fill: none;"/>
  <path d="M 179.908 374.272 L 324.021 374.271 L 251.967 392.346 Z M 315.925 375.271 L 188.004 375.272 L 251.967 391.316 Z M 73.78 361.2 L 430.142 361.199 L 251.967 405.893 Z M 422.046 362.199 L 81.878 362.2 L 251.967 404.863 Z" style="fill: none;"/>
  <path d="M 179.908 374.272 L 324.021 374.271 L 251.967 392.346 Z M 315.925 375.271 L 188.004 375.272 L 251.967 391.316 Z M 73.78 361.2 L 430.142 361.199 L 251.967 405.893 Z M 422.046 362.199 L 81.878 362.2 L 251.967 404.863 Z" style="fill: none;"/>
  <path d="M 179.908 374.272 L 324.021 374.271 L 251.967 392.346 Z M 315.925 375.271 L 188.004 375.272 L 251.967 391.316 Z M 73.78 361.2 L 430.142 361.199 L 251.967 405.893 Z M 422.046 362.199 L 81.878 362.2 L 251.967 404.863 Z" style="fill: none;"/>
  <path d="M 179.908 374.272 L 324.021 374.271 L 251.967 392.346 Z M 315.925 375.271 L 188.004 375.272 L 251.967 391.316 Z M 73.78 361.2 L 430.142 361.199 L 251.967 405.893 Z M 422.046 362.199 L 81.878 362.2 L 251.967 404.863 Z" style="fill: none;"/>
  <path d="M 179.908 374.272 L 324.021 374.271 L 251.967 392.346 Z M 315.925 375.271 L 188.004 375.272 L 251.967 391.316 Z M 73.78 361.2 L 430.142 361.199 L 251.967 405.893 Z M 422.046 362.199 L 81.878 362.2 L 251.967 404.863 Z" style="fill: none;"/>
  <path d="M 179.908 374.272 L 324.021 374.271 L 251.967 392.346 Z M 315.925 375.271 L 188.004 375.272 L 251.967 391.316 Z M 73.78 361.2 L 430.142 361.199 L 251.967 405.893 Z M 422.046 362.199 L 81.878 362.2 L 251.967 404.863 Z" style="fill: none;"/>
  <path d="M 179.908 374.272 L 324.021 374.271 L 251.967 392.346 Z M 315.925 375.271 L 188.004 375.272 L 251.967 391.316 Z M 73.78 361.2 L 430.142 361.199 L 251.967 405.893 Z M 422.046 362.199 L 81.878 362.2 L 251.967 404.863 Z" style="fill: none;"/>
  <path d="M 179.908 374.272 L 324.021 374.271 L 251.967 392.346 Z M 315.925 375.271 L 188.004 375.272 L 251.967 391.316 Z M 73.78 361.2 L 430.142 361.199 L 251.967 405.893 Z M 422.046 362.199 L 81.878 362.2 L 251.967 404.863 Z" style="fill: none;"/>
</svg>